# xmcd
#
# Track frame offsets:
# 150
# 17772
# 37390
# 52156
# 68103
# 86123
# 98379
# 113422
# 134593
# 149538
# 170843
# 187870
# 203652
# 220716
# 238856
# 255730
# 271816
# 287710
# 305189
# 318099
#
# Disc length: 4392 seconds
#
# Revision: 1
# Processed by: cddbd v1.5.2PL0 Copyright (c) Steve Scherf et al.
# Submitted via: TinyPlayer 2.8
#
DISCID=2e112614
DTITLE=Various Artist - My Country [Disc 1 of 2]
DYEAR=2009
DGENRE=Country
TTITLE0=Taylor Swift - Love Story
TTITLE1=The Mavericks - Dance the Night Away
TTITLE2=The Bellamy Brothers - Let Your Love Flow
TTITLE3=Shania Twain - You're Still the One
TTITLE4=Lonestar - Amazed
TTITLE5=Jace Everett - Bad Things
TTITLE6=Mary Chapin Carpenter - Passionate Kisses
TTITLE7=Kenny Chesney - Magic
TTITLE8=Carrie Underwood - Before He Cheats
TTITLE9=Sugarland - Stay
TTITLE10=Ryan Adams - New York, New York
TTITLE11=Toby Keith and Willie Nelson - Beer for My Horses
TTITLE12=Vince Gill - Pretty Little Adriana
TTITLE13=Lee Ann Womack - I Hope You Dance
TTITLE14=Miranda Lambert - Dead Flowers
TTITLE15=Holly Williams - Keep the Change
TTITLE16=Willie Nelson - Always on My Mind
TTITLE17=Linda Ronstadt - Blue Bayou
TTITLE18=Kenny Rogers - Ruby, Don't Take Your Love to Town
TTITLE19=Eva Cassidy - Tennessee Waltz
EXTD=Location:  -  UPC: 600753238219 - Catalogue number: 5323821 - Label: Universal Music TV - ASIN: B002US89YE - Release Date: 2009 11 23 - Discogs:  - MUSICBRAINZ_ALBUMID:  - AMG:  -  
EXTT0=
EXTT1=
EXTT2=
EXTT3=
EXTT4=
EXTT5=
EXTT6=
EXTT7=
EXTT8=
EXTT9=
EXTT10=
EXTT11=
EXTT12=
EXTT13=
EXTT14=
EXTT15=
EXTT16=
EXTT17=
EXTT18=
EXTT19=
PLAYORDER=
